<svg xmlns="http://www.w3.org/2000/svg" viewBox="0 0 256 86.35"><title>janwxyz</title><g id="6cc2eb0b-f145-4860-82e9-9d5f0159c4e2" class="text-primary" data-name="title"><path d="M45.45,8.32a3.29,3.29,0,0,1-2.69,1c-.09.94-.29,2.56-.6,4.87-.45,3.1-.69,4.84-.74,5.19q-5.93,44.16-24.7,44.15c-3.69,0-6.56-1-8.63-3.13A10.71,10.71,0,0,1,5,52.55q0-8.46,7.2-15T31.1,26.84q.73-4.72,1.13-8.46l1.2-10.06q-4-.39-7.46-.39-9.25,0-13.65,1.79c-2.93,1.2-4.39,3.16-4.39,5.86a8.77,8.77,0,0,0,1.33,4.33,2.76,2.76,0,0,1,.4,1.4,3.14,3.14,0,0,1-1.44,2.5,5,5,0,0,1-3.09,1.1,3.65,3.65,0,0,1-3.27-1.8A13.46,13.46,0,0,1,0,16Q0,0,28,0A59.8,59.8,0,0,1,42.49,1.6q3.8.93,3.8,3.73A4.54,4.54,0,0,1,45.45,8.32ZM24.11,51.48q3.26-4.92,5.73-17.25Q13.58,41.36,13.59,51.68a5.19,5.19,0,0,0,1.06,3.5,3.68,3.68,0,0,0,2.93,1.23C19.76,56.41,21.93,54.77,24.11,51.48Z"/><path d="M41.22,53.74a12,12,0,0,1-2.46-7.85A21.67,21.67,0,0,1,41.22,35.8a21.06,21.06,0,0,1,6.56-7.66,14.82,14.82,0,0,1,8.7-2.9,2.57,2.57,0,0,1,2,.57,4.73,4.73,0,0,1,.83,2,15.42,15.42,0,0,1,2.93-.27c2.18,0,3.27.78,3.27,2.33a50.77,50.77,0,0,1-1,6.66,64.77,64.77,0,0,0-1.53,10.66,2.45,2.45,0,0,0,.49,1.6,1.63,1.63,0,0,0,1.3.6,5.07,5.07,0,0,0,3.07-1.64,55.58,55.58,0,0,0,4.86-5.29,2.33,2.33,0,0,1,1.8-.93,1.52,1.52,0,0,1,1.36.8,4.13,4.13,0,0,1,.5,2.19,6.12,6.12,0,0,1-1.26,4.13,33.32,33.32,0,0,1-5.8,5.73,9.84,9.84,0,0,1-5.93,2.33,6.2,6.2,0,0,1-4-1.5,9.05,9.05,0,0,1-2.77-4.09q-3.47,5.6-8.72,5.59A8.11,8.11,0,0,1,41.22,53.74ZM53,48.28a11.15,11.15,0,0,0,1.93-4.59l2.47-12.26a8.09,8.09,0,0,0-5.16,2.1,14.23,14.23,0,0,0-3.77,5.36A18.11,18.11,0,0,0,47.08,46,4.71,4.71,0,0,0,47.92,49a2.83,2.83,0,0,0,2.29,1A3.65,3.65,0,0,0,53,48.28Z"/><path d="M72.09,54.08q-1-2.67-1-8.53A54.36,54.36,0,0,1,73.52,29.1a5,5,0,0,1,2-2.83,6.91,6.91,0,0,1,3.83-.9,3.72,3.72,0,0,1,1.86.34A1.35,1.35,0,0,1,81.71,27a25.68,25.68,0,0,1-1,4.8c-.45,1.77-.8,3.33-1.07,4.66A47,47,0,0,0,79,41.36,38.11,38.11,0,0,1,83.91,32a19.42,19.42,0,0,1,5.36-5.12,9.82,9.82,0,0,1,4.83-1.54c2.89,0,4.33,1.45,4.33,4.33A54.07,54.07,0,0,1,97,39.09a45.87,45.87,0,0,0-1.27,7.66c0,1.78.64,2.67,1.93,2.67a5.24,5.24,0,0,0,3.17-1.64,52.54,52.54,0,0,0,4.89-5.29,2.33,2.33,0,0,1,1.8-.93,1.51,1.51,0,0,1,1.36.8,4,4,0,0,1,.5,2.19,6.12,6.12,0,0,1-1.26,4.13,29.31,29.31,0,0,1-6.16,5.8,12.93,12.93,0,0,1-7.49,2.26,6.46,6.46,0,0,1-5.13-2,8.34,8.34,0,0,1-1.73-5.7,41.77,41.77,0,0,1,.93-6.66,35,35,0,0,0,.86-5.79c0-.71-.24-1.07-.73-1.07s-1.39.75-2.43,2.23a36.46,36.46,0,0,0-3.2,5.9,47.06,47.06,0,0,0-2.63,7.72,10.29,10.29,0,0,1-1.7,4.23,3.8,3.8,0,0,1-3,1.1A3.65,3.65,0,0,1,72.09,54.08Z"/><path d="M148.18,27.64a6.86,6.86,0,0,1-.53,2.2,157,157,0,0,1-10.19,20.31,19,19,0,0,1-4.33,5.19,7.28,7.28,0,0,1-4.4,1.4,4.38,4.38,0,0,1-4-2.06c-.87-1.38-1.41-3.64-1.63-6.8q-.14-1.73-.27-5.19a60.82,60.82,0,0,1-3.76,8.76,12.31,12.31,0,0,1-3.33,4.16,6.64,6.64,0,0,1-3.9,1.13,5,5,0,0,1-4.29-2.13c-1-1.42-1.7-3.66-2-6.73q-.8-9.32-.8-16.31V29.24a3.9,3.9,0,0,1,1.14-3.1,5.69,5.69,0,0,1,3.46-.83,3.68,3.68,0,0,1,2.56.76,3.35,3.35,0,0,1,.84,2.57q0,7.65.93,19.91,2.19-4.66,4.06-8.92t4.33-10.93A5.43,5.43,0,0,1,123.9,26a4.22,4.22,0,0,1,2.44-.7,4.32,4.32,0,0,1,2.79.76,3.16,3.16,0,0,1,.93,2.57V39c0,4.44,0,7.64.07,9.59q3.06-5.32,5-9.26a108.92,108.92,0,0,0,4.43-10.59A4.89,4.89,0,0,1,141.52,26a5.84,5.84,0,0,1,3-.7C147,25.31,148.18,26.08,148.18,27.64Z"/><path d="M145.82,55.14a5.86,5.86,0,0,1-1.5-4.19,6.68,6.68,0,0,1,1.7-4.8,7.35,7.35,0,0,1,9.19-.36A5.6,5.6,0,0,1,156.7,50,6.8,6.8,0,0,1,155,54.91a6.19,6.19,0,0,1-4.73,1.83A5.74,5.74,0,0,1,145.82,55.14Z"/><path d="M203.22,42.36a4.13,4.13,0,0,1,.5,2.19,6.12,6.12,0,0,1-1.26,4.13A30.15,30.15,0,0,1,196,54.44a14,14,0,0,1-7.89,2.3,13.77,13.77,0,0,1-6-1.26,10.21,10.21,0,0,1-4.16-3.6q-3.8,4.8-9,4.8a7.8,7.8,0,0,1-5.8-2.14A7.64,7.64,0,0,1,161,48.88a8.83,8.83,0,0,1,1.53-5.39,5.08,5.08,0,0,1,4.33-2.07q2.4,0,2.4,1.8c0,.31,0,.87-.13,1.67-.14,1.6-.2,2.51-.2,2.73,0,1.33.57,2,1.73,2a3.2,3.2,0,0,0,2.43-1.5,12.33,12.33,0,0,0,1.93-4.1,20.21,20.21,0,0,0,.77-5.73,11.81,11.81,0,0,0-.6-4c-.4-1.08-.89-1.63-1.47-1.63a1.37,1.37,0,0,0-1.06.37,3.87,3.87,0,0,0-.67,1.23,4.43,4.43,0,0,1-1.07,1.7,3.37,3.37,0,0,1-2.33.63,2.89,2.89,0,0,1-2.33-1,4.83,4.83,0,0,1-.86-3.16A7,7,0,0,1,167.49,27a7.48,7.48,0,0,1,5.33-1.93,9.62,9.62,0,0,1,5.06,1.36,8.75,8.75,0,0,1,3.46,4,13.8,13.8,0,0,1,4.5-4,10.33,10.33,0,0,1,4.9-1.33,5.82,5.82,0,0,1,4,1.2,4.88,4.88,0,0,1,1.36,3.86,8.32,8.32,0,0,1-1.13,4.69,3.25,3.25,0,0,1-2.73,1.7,2.62,2.62,0,0,1-2-.6,4,4,0,0,1-.8-1.73A3.16,3.16,0,0,0,189,33a1,1,0,0,0-.93-.4c-.53,0-1.1.5-1.7,1.5a15,15,0,0,0-1.53,4,20.72,20.72,0,0,0-.63,5.13,7.06,7.06,0,0,0,1.5,4.83,5.18,5.18,0,0,0,4.09,1.7A7.9,7.9,0,0,0,194.7,48a34.76,34.76,0,0,0,5.36-5.49,2.33,2.33,0,0,1,1.8-.93A1.52,1.52,0,0,1,203.22,42.36Z"/><path d="M235.79,41.52a4.08,4.08,0,0,1,.5,2.1,5.14,5.14,0,0,1-.47,2.4,4.32,4.32,0,0,1-1.46,1.53l-14.79,9.59a149.56,149.56,0,0,1-8.63,21.68c-2.73,5.26-5.89,7.53-10.11,7.53-2.26,0-5.58-1-7-2.38s-1.37-2.52-1.37-4.79a16.83,16.83,0,0,1,1.84-6.45,28.9,28.9,0,0,1,5.32-7.5c2.6-2.82,8.27-6.05,13-9.69l.21-1.53q.47-2.46,1.06-7.06a16.86,16.86,0,0,1-3.73,7.29,7,7,0,0,1-5.06,2.5,5.74,5.74,0,0,1-4.9-2.76,11.92,11.92,0,0,1-1.89-6.89,58.66,58.66,0,0,1,.66-9.16,58.32,58.32,0,0,1,2.2-8.83,5.61,5.61,0,0,1,1.86-2.86,6.56,6.56,0,0,1,3.8-.87,3.28,3.28,0,0,1,2,.47,1.7,1.7,0,0,1,.57,1.4,29.57,29.57,0,0,1-.73,3.6c-.45,1.64-.8,3.13-1.07,4.46q-.54,2.73-.93,5.23a26.46,26.46,0,0,0-.4,4.09c0,1.69.46,2.53,1.4,2.53.66,0,1.5-.66,2.49-2a29.09,29.09,0,0,0,3.2-6.06,81.11,81.11,0,0,0,3.3-10,5.23,5.23,0,0,1,1.63-2.86,5.24,5.24,0,0,1,3.3-.87,4.15,4.15,0,0,1,2.13.4,1.49,1.49,0,0,1,.6,1.34q0,1.66-1.74,11.45L220.9,49.28c3.42-2.57,8.75-5.93,12-8.06a3.08,3.08,0,0,1,1.53-.53A1.54,1.54,0,0,1,235.79,41.52ZM205,76.39c1.38-2.58,4.76-6.86,6.13-12.86-3.42,2.89-7.89,5.52-9.42,7.9a12,12,0,0,0-2.3,6.22,3.62,3.62,0,0,0,.43,1.87,1.53,1.53,0,0,0,1.43.73C202.36,80.25,203.61,79,205,76.39Z"/><path d="M255.23,50.18a4.6,4.6,0,0,1,.77,2.7,5.54,5.54,0,0,1-.77,2.93,2.35,2.35,0,0,1-2.09,1.26q-2.4,0-4.5-.06l-3.7-.13c-4.08-.18-7-.27-8.65-.27a8.24,8.24,0,0,0-2.53.6,12.27,12.27,0,0,1-2.93.66c-2.36,0-3.53-1.5-3.53-4.52a14.52,14.52,0,0,1,2.19-7,37.7,37.7,0,0,1,5.73-7.56,41.84,41.84,0,0,1,7.33-6.13l-9.39.27a2.4,2.4,0,0,1-2.23-1,4.39,4.39,0,0,1-.77-2.63,5.2,5.2,0,0,1,.77-2.83A2.35,2.35,0,0,1,233,25.24a70,70,0,0,1,7.26.47l3.17.26c1.62.14,3.12.2,4.49.2a11.14,11.14,0,0,0,2.53-.53c.22,0,.66-.15,1.3-.33A6.24,6.24,0,0,1,253.4,25a2.14,2.14,0,0,1,1.77.93,4.85,4.85,0,0,1,.7,2.87,5.18,5.18,0,0,1-1,3.39,8.89,8.89,0,0,1-3.09,2.27,25.6,25.6,0,0,0-5.46,3.66,52.71,52.71,0,0,0-5.93,5.76,26.39,26.39,0,0,0-4.13,6L253,49.15A2.41,2.41,0,0,1,255.23,50.18Z"/></g><g id="b9b00ba3-e874-477a-b2b3-b3b5be145d73" data-name="description" class="text-secondary">
<text transform="translate(20 76)" font-size="14" font-family="FiraSansExtraCondensed-Light, Fira Sans Extra Condensed, Helvetica, sans-serif">
	Jack of all trades and a master of
<tspan x="200" y="0">some</tspan></text>
</g>
</svg>