<svg xmlns="http://www.w3.org/2000/svg" viewBox="0 0 256 86.35"><title>janwxyz</title><g id="b1cc18eb-0083-492d-86ff-02778f1797c2" data-name="title"><path d="M34.74-57.48a3.29,3.29,0,0,1-2.69,1q-.13,1.4-.6,4.86c-.45,3.11-.69,4.84-.74,5.2Q24.79-2.27,6-2.27c-3.69,0-6.56-1-8.63-3.13a10.73,10.73,0,0,1-3.1-7.86q0-8.46,7.2-14.95T20.39-39q.73-4.74,1.13-8.46l1.2-10.06a74.1,74.1,0,0,0-7.46-.4q-9.25,0-13.65,1.8t-4.39,5.86a8.8,8.8,0,0,0,1.33,4.33,2.73,2.73,0,0,1,.4,1.4A3.15,3.15,0,0,1-2.49-42,5,5,0,0,1-5.58-40.9a3.64,3.64,0,0,1-3.27-1.79,13.49,13.49,0,0,1-1.86-7.13q0-16,28-16a60.32,60.32,0,0,1,14.52,1.59q3.8.94,3.8,3.73A4.55,4.55,0,0,1,34.74-57.48ZM13.4-14.32q3.26-4.93,5.73-17.25Q2.87-24.44,2.88-14.12a5.16,5.16,0,0,0,1.06,3.49A3.65,3.65,0,0,0,6.87-9.39C9.05-9.39,11.22-11,13.4-14.32Z" transform="translate(10.71 65.8)"/><path d="M30.51-12.06a12,12,0,0,1-2.46-7.86A21.7,21.7,0,0,1,30.51-30a21.22,21.22,0,0,1,6.56-7.66,14.81,14.81,0,0,1,8.7-2.89,2.62,2.62,0,0,1,2,.56,4.85,4.85,0,0,1,.83,2,16.3,16.3,0,0,1,2.93-.26c2.18,0,3.27.78,3.27,2.33a51.26,51.26,0,0,1-1,6.66,64.83,64.83,0,0,0-1.53,10.65,2.43,2.43,0,0,0,.49,1.6,1.63,1.63,0,0,0,1.3.6A5,5,0,0,0,57.09-18,56.86,56.86,0,0,0,62-23.31a2.31,2.31,0,0,1,1.8-.94,1.54,1.54,0,0,1,1.36.8,4.19,4.19,0,0,1,.5,2.2,6.14,6.14,0,0,1-1.26,4.13,34,34,0,0,1-5.8,5.73,9.9,9.9,0,0,1-5.93,2.33,6.2,6.2,0,0,1-4-1.5,9,9,0,0,1-2.77-4.1q-3.46,5.6-8.72,5.6A8.11,8.11,0,0,1,30.51-12.06ZM42.3-17.52a11.2,11.2,0,0,0,1.93-4.6L46.7-34.37a8.09,8.09,0,0,0-5.16,2.1,14.15,14.15,0,0,0-3.77,5.36,18.08,18.08,0,0,0-1.4,7.06,4.66,4.66,0,0,0,.84,3.06,2.81,2.81,0,0,0,2.29,1A3.64,3.64,0,0,0,42.3-17.52Z" transform="translate(10.71 65.8)"/><path d="M61.38-11.73q-1-2.65-1-8.52A54.31,54.31,0,0,1,62.81-36.7a5,5,0,0,1,2-2.83,6.91,6.91,0,0,1,3.83-.9,3.74,3.74,0,0,1,1.86.33A1.38,1.38,0,0,1,71-38.83,25.48,25.48,0,0,1,70-34c-.45,1.78-.8,3.33-1.07,4.67a47.19,47.19,0,0,0-.67,4.92,38.21,38.21,0,0,1,4.93-9.32,19.33,19.33,0,0,1,5.36-5.13,9.8,9.8,0,0,1,4.83-1.53q4.33,0,4.33,4.33a54.07,54.07,0,0,1-1.46,9.39A45.71,45.71,0,0,0,85-19c0,1.77.64,2.66,1.93,2.66A5.22,5.22,0,0,0,90.09-18,53.68,53.68,0,0,0,95-23.31a2.31,2.31,0,0,1,1.8-.94,1.53,1.53,0,0,1,1.36.8,4.1,4.1,0,0,1,.5,2.2,6.14,6.14,0,0,1-1.26,4.13,29.25,29.25,0,0,1-6.16,5.79,12.93,12.93,0,0,1-7.49,2.27,6.47,6.47,0,0,1-5.13-2,8.31,8.31,0,0,1-1.73-5.69,41.77,41.77,0,0,1,.93-6.66,35.14,35.14,0,0,0,.86-5.79c0-.71-.24-1.07-.73-1.07S76.54-29.5,75.5-28a36.31,36.31,0,0,0-3.2,5.89,47.18,47.18,0,0,0-2.63,7.73A10.29,10.29,0,0,1,68-10.16a3.83,3.83,0,0,1-3,1.1A3.64,3.64,0,0,1,61.38-11.73Z" transform="translate(10.71 65.8)"/><path d="M137.47-38.17a6.75,6.75,0,0,1-.53,2.2,157.19,157.19,0,0,1-10.19,20.32,19,19,0,0,1-4.33,5.19,7.35,7.35,0,0,1-4.4,1.4,4.36,4.36,0,0,1-4-2.07c-.87-1.37-1.41-3.64-1.63-6.79q-.14-1.72-.27-5.19a60.61,60.61,0,0,1-3.76,8.75,12.47,12.47,0,0,1-3.33,4.17,6.71,6.71,0,0,1-3.9,1.13,5,5,0,0,1-4.29-2.13c-1-1.42-1.7-3.67-2-6.73q-.8-9.31-.8-16.32v-2.33a3.9,3.9,0,0,1,1.14-3.09,5.62,5.62,0,0,1,3.46-.84,3.68,3.68,0,0,1,2.56.77,3.34,3.34,0,0,1,.84,2.56q0,7.66.93,19.92,2.19-4.66,4.06-8.93t4.33-10.92a5.52,5.52,0,0,1,1.76-2.7,4.29,4.29,0,0,1,2.44-.7,4.32,4.32,0,0,1,2.79.77,3.15,3.15,0,0,1,.93,2.56v10.33c0,4.44,0,7.63.07,9.59q3.06-5.33,5-9.26a108.92,108.92,0,0,0,4.43-10.59,5,5,0,0,1,1.93-2.7,5.94,5.94,0,0,1,3-.7C136.25-40.5,137.47-39.72,137.47-38.17Z" transform="translate(10.71 65.8)"/><path d="M135.11-10.66a5.89,5.89,0,0,1-1.5-4.2,6.67,6.67,0,0,1,1.7-4.79,6.21,6.21,0,0,1,4.76-1.8A6.21,6.21,0,0,1,144.5-20,5.63,5.63,0,0,1,146-15.79a6.82,6.82,0,0,1-1.73,4.9,6.19,6.19,0,0,1-4.73,1.83A5.74,5.74,0,0,1,135.11-10.66Z" transform="translate(10.71 65.8)"/><path d="M192.51-23.45a4.19,4.19,0,0,1,.5,2.2,6.14,6.14,0,0,1-1.26,4.13,30.15,30.15,0,0,1-6.43,5.76,14.06,14.06,0,0,1-7.89,2.3,13.64,13.64,0,0,1-6-1.27,10.11,10.11,0,0,1-4.16-3.59q-3.8,4.78-9,4.79a7.83,7.83,0,0,1-5.8-2.13,7.66,7.66,0,0,1-2.13-5.66,8.81,8.81,0,0,1,1.53-5.39,5.08,5.08,0,0,1,4.33-2.07q2.4,0,2.4,1.8c0,.31,0,.86-.13,1.66-.14,1.6-.2,2.51-.2,2.73,0,1.34.57,2,1.73,2a3.2,3.2,0,0,0,2.43-1.5,12.27,12.27,0,0,0,1.93-4.09,20.21,20.21,0,0,0,.77-5.73,11.77,11.77,0,0,0-.6-4c-.4-1.09-.89-1.63-1.47-1.63a1.34,1.34,0,0,0-1.06.37,3.75,3.75,0,0,0-.67,1.23,4.51,4.51,0,0,1-1.07,1.7,3.37,3.37,0,0,1-2.33.63,2.89,2.89,0,0,1-2.33-1,4.86,4.86,0,0,1-.86-3.17,6.94,6.94,0,0,1,2.06-5.32,7.48,7.48,0,0,1,5.33-1.94,9.62,9.62,0,0,1,5.06,1.37,8.72,8.72,0,0,1,3.46,4,13.77,13.77,0,0,1,4.5-4A10.35,10.35,0,0,1,180-40.7a5.82,5.82,0,0,1,4,1.2,4.91,4.91,0,0,1,1.36,3.87,8.34,8.34,0,0,1-1.13,4.69,3.26,3.26,0,0,1-2.73,1.7,2.62,2.62,0,0,1-2-.6,4,4,0,0,1-.8-1.73,3.16,3.16,0,0,0-.4-1.2,1,1,0,0,0-.93-.4c-.53,0-1.1.5-1.7,1.5a15,15,0,0,0-1.53,4,20.6,20.6,0,0,0-.63,5.13,7.06,7.06,0,0,0,1.5,4.83,5.18,5.18,0,0,0,4.09,1.7,7.9,7.9,0,0,0,4.9-1.77,35.66,35.66,0,0,0,5.36-5.49,2.31,2.31,0,0,1,1.8-.94A1.54,1.54,0,0,1,192.51-23.45Z" transform="translate(10.71 65.8)"/><path d="M225.08-24.28a4.05,4.05,0,0,1,.5,2.1,5.06,5.06,0,0,1-.47,2.39,4.42,4.42,0,0,1-1.46,1.54L208.86-8.66A150,150,0,0,1,200.23,13c-2.73,5.26-5.89,7.52-10.11,7.52-2.26,0-5.58-1-7-2.37s-1.37-2.53-1.37-4.79a16.88,16.88,0,0,1,1.84-6.46,29,29,0,0,1,5.32-7.49c2.6-2.82,8.27-6,13-9.69l.21-1.53c.31-1.64.66-4,1.06-7.06a16.86,16.86,0,0,1-3.73,7.29,7,7,0,0,1-5.06,2.5,5.72,5.72,0,0,1-4.9-2.77,11.9,11.9,0,0,1-1.89-6.89,58.75,58.75,0,0,1,.66-9.16,58.51,58.51,0,0,1,2.2-8.82,5.56,5.56,0,0,1,1.86-2.86,6.56,6.56,0,0,1,3.8-.87,3.28,3.28,0,0,1,2,.47,1.69,1.69,0,0,1,.57,1.4A29.21,29.21,0,0,1,198-35c-.45,1.64-.8,3.13-1.07,4.46-.36,1.82-.67,3.57-.93,5.23a26.57,26.57,0,0,0-.4,4.1c0,1.69.46,2.53,1.4,2.53.66,0,1.5-.67,2.49-2a29.09,29.09,0,0,0,3.2-6.06,82.26,82.26,0,0,0,3.3-10,5.19,5.19,0,0,1,1.63-2.86,5.24,5.24,0,0,1,3.3-.87,4,4,0,0,1,2.13.4,1.48,1.48,0,0,1,.6,1.33q0,1.66-1.74,11.46l-1.73,10.72c3.42-2.58,8.75-5.93,12-8.06a3,3,0,0,1,1.53-.53A1.54,1.54,0,0,1,225.08-24.28ZM194.27,10.59C195.65,8,199,3.72,200.4-2.27,197,.62,192.51,3.25,191,5.62a12,12,0,0,0-2.3,6.23,3.58,3.58,0,0,0,.43,1.86,1.54,1.54,0,0,0,1.43.74C191.65,14.45,192.9,13.16,194.27,10.59Z" transform="translate(10.71 65.8)"/><path d="M244.52-15.62a4.6,4.6,0,0,1,.77,2.7,5.57,5.57,0,0,1-.77,2.93,2.35,2.35,0,0,1-2.09,1.26c-1.6,0-3.1,0-4.5-.07s-2.63-.08-3.7-.13c-4.08-.18-7-.26-8.65-.26a8.15,8.15,0,0,0-2.53.59,12,12,0,0,1-2.93.67c-2.36,0-3.53-1.51-3.53-4.53a14.58,14.58,0,0,1,2.19-7A38.27,38.27,0,0,1,224.51-27a41.77,41.77,0,0,1,7.33-6.12l-9.39.26a2.39,2.39,0,0,1-2.23-1,4.42,4.42,0,0,1-.77-2.63,5.16,5.16,0,0,1,.77-2.83,2.35,2.35,0,0,1,2.09-1.23,69.61,69.61,0,0,1,7.26.46l3.17.27c1.62.13,3.12.2,4.49.2a11.75,11.75,0,0,0,2.53-.53c.22-.05.66-.16,1.3-.34a6.62,6.62,0,0,1,1.63-.26,2.14,2.14,0,0,1,1.77.93,4.82,4.82,0,0,1,.7,2.86,5.21,5.21,0,0,1-1,3.4A8.88,8.88,0,0,1,241-31.31a26.09,26.09,0,0,0-5.46,3.67,52.71,52.71,0,0,0-5.93,5.76,26.17,26.17,0,0,0-4.13,6l16.78-.73A2.39,2.39,0,0,1,244.52-15.62Z" transform="translate(10.71 65.8)"/></g><g id="6c812769-3d0a-43cd-8da0-4944956de875" data-name="description"><text transform="translate(10.71 77.6)" style="font-size:14px;font-family:FiraSansCondensed-Light, Fira Sans Condensed">Jack of all t<tspan x="59.97" y="0" style="letter-spacing:-0.023995535714285716em">r</tspan><tspan x="64.19" y="0">ades and a mas</tspan><tspan x="149.33" y="0" style="letter-spacing:-0.007986886160714286em">t</tspan><tspan x="153.4" y="0" xml:space="preserve">er of        some</tspan></text></g></svg>